<svg class="svg" xmlns="http://www.w3.org/2000/svg">
		<symbol id="align-vertical-symbol" viewBox="0 0 21 21">
        

<g fill="none" fill-rule="evenodd" stroke="#000000" stroke-linecap="round" stroke-linejoin="round" transform="translate(3 1)">

<path d="m4.5 4.5 3 3 3-3" style="" fill="#fff"></path>

<path d="m7.5.5v7" style="" fill="#fff"></path>

<path d="m4.5 14.5 3-3 3 3" style="" fill="#fff"></path>

<path d="m7.5 11.5v7" style="" fill="#fff"></path>

<path d="m.5 9.5h14" style="" fill="#fff"></path>

</g>


    </symbol>
	
		<symbol id="align_justify_center-symbol" viewBox="0 -960 960 960">
        <path d="M460-120v-720h40v720h-40Zm129.23-180v-360h80v360h-80Zm-298.46 0v-360h80v360h-80Z"></path>
    </symbol>
	
		<symbol id="align_justify_flex_end-symbol" viewBox="0 -960 960 960">
        <path d="M800-120v-720h40v720h-40ZM580-300v-360h80v360h-80Zm-240 0v-360h80v360h-80Z"></path>
    </symbol>
	
		<symbol id="align_justify_flex_start-symbol" viewBox="0 -960 960 960">
        <path d="M120-120v-720h40v720h-40Zm420-180v-360h80v360h-80Zm-240 0v-360h80v360h-80Z"></path>
    </symbol>
	
		<symbol id="align_vertical_bottom-symbol" viewBox="0 -960 960 960">
        <path d="M120-140v-40h720v40H120Zm187.69-143.08v-537.69h81.54v537.69h-81.54Zm263.08 0v-297.69h81.54v297.69h-81.54Z"></path>
    </symbol>
	
		<symbol id="align_vertical_center-symbol" viewBox="0 -960 960 960">
        <path d="M303.85-160v-300H120v-40h183.85v-300h81.53v300h189.24v-180h81.53v180H840v40H656.15v180h-81.53v-180H385.38v300h-81.53Z"></path>
    </symbol>
	
		<symbol id="align_vertical_top-symbol" viewBox="0 -960 960 960">
        <path d="M307.69-140v-537.69h81.54V-140h-81.54Zm263.08-240v-297.69h81.54V-380h-81.54ZM120-780.77v-40h720v40H120Z"></path>
    </symbol>
	
		<symbol id="angle-down-solid-symbol" viewBox="0 0 448 512">
        <path d="M201.4 374.6c12.5 12.5 32.8 12.5 45.3 0l160-160c12.5-12.5 12.5-32.8 0-45.3s-32.8-12.5-45.3 0L224 306.7 86.6 169.4c-12.5-12.5-32.8-12.5-45.3 0s-12.5 32.8 0 45.3l160 160z"></path>
    </symbol>
	
		<symbol id="bars-solid-full-symbol" viewBox="0 0 640 640">
        <path d="M96 160C96 142.3 110.3 128 128 128L512 128C529.7 128 544 142.3 544 160C544 177.7 529.7 192 512 192L128 192C110.3 192 96 177.7 96 160zM96 320C96 302.3 110.3 288 128 288L512 288C529.7 288 544 302.3 544 320C544 337.7 529.7 352 512 352L128 352C110.3 352 96 337.7 96 320zM544 480C544 497.7 529.7 512 512 512L128 512C110.3 512 96 497.7 96 480C96 462.3 110.3 448 128 448L512 448C529.7 448 544 462.3 544 480z"></path>
    </symbol>
	
		<symbol id="clone-solid-full-symbol" viewBox="0 0 640 640">
        <path d="M352 512L128 512L128 288L176 288L176 224L128 224C92.7 224 64 252.7 64 288L64 512C64 547.3 92.7 576 128 576L352 576C387.3 576 416 547.3 416 512L416 464L352 464L352 512zM288 416L512 416C547.3 416 576 387.3 576 352L576 128C576 92.7 547.3 64 512 64L288 64C252.7 64 224 92.7 224 128L224 352C224 387.3 252.7 416 288 416z"></path>
    </symbol>
	
		<symbol id="code-solid-full-symbol" viewBox="0 0 640 640">
        <path d="M392.8 65.2C375.8 60.3 358.1 70.2 353.2 87.2L225.2 535.2C220.3 552.2 230.2 569.9 247.2 574.8C264.2 579.7 281.9 569.8 286.8 552.8L414.8 104.8C419.7 87.8 409.8 70.1 392.8 65.2zM457.4 201.3C444.9 213.8 444.9 234.1 457.4 246.6L530.8 320L457.4 393.4C444.9 405.9 444.9 426.2 457.4 438.7C469.9 451.2 490.2 451.2 502.7 438.7L598.7 342.7C611.2 330.2 611.2 309.9 598.7 297.4L502.7 201.4C490.2 188.9 469.9 188.9 457.4 201.4zM182.7 201.3C170.2 188.8 149.9 188.8 137.4 201.3L41.4 297.3C28.9 309.8 28.9 330.1 41.4 342.6L137.4 438.6C149.9 451.1 170.2 451.1 182.7 438.6C195.2 426.1 195.2 405.8 182.7 393.3L109.3 320L182.6 246.6C195.1 234.1 195.1 213.8 182.6 201.3z" fill="currentColor"></path>
    </symbol>
	
		<symbol id="conversion_path-symbol" viewBox="0 -960 960 960">
        <path d="M760-140q-35.92 0-63.46-22.5T662.38-220H440q-58.31 0-99.15-40.85Q300-301.69 300-360t40.85-99.15Q381.69-500 440-500h80q41.25 0 70.62-29.42Q620-558.84 620-600.15t-29.38-70.58Q561.25-700 520-700H297.62q-6.85 35-34.27 57.5Q235.92-620 200-620q-41.67 0-70.83-29.14Q100-678.28 100-719.91q0-41.63 29.17-70.86Q158.33-820 200-820q35.92 0 63.35 22.5 27.42 22.5 34.27 57.5H520q58.31 0 99.15 40.85Q660-658.31 660-600t-40.85 99.15Q578.31-460 520-460h-80q-41.25 0-70.62 29.42Q340-401.16 340-359.85t29.38 70.58Q398.75-260 440-260h222.38q6.85-35 34.27-57.5Q724.08-340 760-340q41.67 0 70.83 29.14Q860-281.72 860-240.09q0 41.63-29.17 70.86Q801.67-140 760-140ZM200-660q24.69 0 42.35-17.65Q260-695.31 260-720t-17.65-42.35Q224.69-780 200-780t-42.35 17.65Q140-744.69 140-720t17.65 42.35Q175.31-660 200-660Z"></path>
    </symbol>
	
		<symbol id="copy-symbol" viewBox="0 0 24 24">
        <rect x="9" y="9" width="13" height="13" rx="2" ry="2"></rect><path d="M5 15H4a2 2 0 0 1-2-2V4a2 2 0 0 1 2-2h9a2 2 0 0 1 2 2v1"></path>
    </symbol>
	
		<symbol id="eye-off-symbol" viewBox="0 0 24 24">
        <path d="M17.94 17.94A10.07 10.07 0 0 1 12 20c-7 0-11-8-11-8a18.45 18.45 0 0 1 5.06-5.94M9.9 4.24A9.12 9.12 0 0 1 12 4c7 0 11 8 11 8a18.5 18.5 0 0 1-2.16 3.19m-6.72-1.07a3 3 0 1 1-4.24-4.24"></path><line x1="1" y1="1" x2="23" y2="23"></line>
    </symbol>
	
		<symbol id="eye-symbol" viewBox="0 0 24 24">
        <path d="M1 12s4-8 11-8 11 8 11 8-4 8-11 8-11-8-11-8z"></path><circle cx="12" cy="12" r="3"></circle>
    </symbol>
	
		<symbol id="file-symbol" viewBox="0 0 24 24">
        <path d="M13 2H6a2 2 0 0 0-2 2v16a2 2 0 0 0 2 2h12a2 2 0 0 0 2-2V9z"></path><polyline points="13 2 13 9 20 9"></polyline>
    </symbol>
	
		<symbol id="gear-solid-full-symbol" viewBox="0 0 640 640">
        <path d="M259.1 73.5C262.1 58.7 275.2 48 290.4 48L350.2 48C365.4 48 378.5 58.7 381.5 73.5L396 143.5C410.1 149.5 423.3 157.2 435.3 166.3L503.1 143.8C517.5 139 533.3 145 540.9 158.2L570.8 210C578.4 223.2 575.7 239.8 564.3 249.9L511 297.3C511.9 304.7 512.3 312.3 512.3 320C512.3 327.7 511.8 335.3 511 342.7L564.4 390.2C575.8 400.3 578.4 417 570.9 430.1L541 481.9C533.4 495 517.6 501.1 503.2 496.3L435.4 473.8C423.3 482.9 410.1 490.5 396.1 496.6L381.7 566.5C378.6 581.4 365.5 592 350.4 592L290.6 592C275.4 592 262.3 581.3 259.3 566.5L244.9 496.6C230.8 490.6 217.7 482.9 205.6 473.8L137.5 496.3C123.1 501.1 107.3 495.1 99.7 481.9L69.8 430.1C62.2 416.9 64.9 400.3 76.3 390.2L129.7 342.7C128.8 335.3 128.4 327.7 128.4 320C128.4 312.3 128.9 304.7 129.7 297.3L76.3 249.8C64.9 239.7 62.3 223 69.8 209.9L99.7 158.1C107.3 144.9 123.1 138.9 137.5 143.7L205.3 166.2C217.4 157.1 230.6 149.5 244.6 143.4L259.1 73.5zM320.3 400C364.5 399.8 400.2 363.9 400 319.7C399.8 275.5 363.9 239.8 319.7 240C275.5 240.2 239.8 276.1 240 320.3C240.2 364.5 276.1 400.2 320.3 400z"></path>
    </symbol>
	
		<symbol id="hand-solid-full-symbol" viewBox="0 0 640 640">
        <path d="M352 96C352 78.3 337.7 64 320 64C302.3 64 288 78.3 288 96L288 304C288 312.8 280.8 320 272 320C263.2 320 256 312.8 256 304L256 128C256 110.3 241.7 96 224 96C206.3 96 192 110.3 192 128L192 400C192 401.5 192 403.1 192.1 404.6L131.6 347C115.6 331.8 90.3 332.4 75 348.4C59.7 364.4 60.4 389.7 76.4 405L188.8 512C231.9 553.1 289.2 576 348.8 576L368 576C465.2 576 544 497.2 544 400L544 192C544 174.3 529.7 160 512 160C494.3 160 480 174.3 480 192L480 304C480 312.8 472.8 320 464 320C455.2 320 448 312.8 448 304L448 128C448 110.3 433.7 96 416 96C398.3 96 384 110.3 384 128L384 304C384 312.8 376.8 320 368 320C359.2 320 352 312.8 352 304L352 96z" fill="currentColor"></path>
    </symbol>
	
		<symbol id="image-symbol" viewBox="0 0 24 24">
        <rect x="3" y="3" width="18" height="18" rx="2" ry="2"></rect><circle cx="8.5" cy="8.5" r="1.5"></circle><polyline points="21 15 16 10 5 21"></polyline>
    </symbol>
	
		<symbol id="line_weight-symbol" viewBox="0 -960 960 960">
        <path d="M220-229.23v-20h520v20H220Zm0-100v-40h520v40H220Zm0-120v-58.46h520v58.46H220Zm0-140v-141.54h520v141.54H220Z"></path>
    </symbol>
	
		<symbol id="location-arrow-solid-full-symbol" viewBox="0 0 640 640">
        <path fill="currentColor" d="M541.9 139.5C546.4 127.7 543.6 114.3 534.7 105.4C525.8 96.5 512.4 93.6 500.6 98.2L84.6 258.2C71.9 263 63.7 275.2 64 288.7C64.3 302.2 73.1 314.1 85.9 318.3L262.7 377.2L321.6 554C325.9 566.8 337.7 575.6 351.2 575.9C364.7 576.2 376.9 568 381.8 555.4L541.8 139.4z"></path>
    </symbol>
	
		<symbol id="lock-symbol" viewBox="0 0 24 24">
        <rect x="3" y="11" width="18" height="11" rx="2" ry="2"></rect><path d="M7 11V7a5 5 0 0 1 10 0v4"></path>
    </symbol>
	
		<symbol id="magnifying-glass-solid-full-symbol" viewBox="0 0 640 640">
        <path d="M480 272C480 317.9 465.1 360.3 440 394.7L566.6 521.4C579.1 533.9 579.1 554.2 566.6 566.7C554.1 579.2 533.8 579.2 521.3 566.7L394.7 440C360.3 465.1 317.9 480 272 480C157.1 480 64 386.9 64 272C64 157.1 157.1 64 272 64C386.9 64 480 157.1 480 272zM272 416C351.5 416 416 351.5 416 272C416 192.5 351.5 128 272 128C192.5 128 128 192.5 128 272C128 351.5 192.5 416 272 416z" fill="currentColor"></path>
    </symbol>
	
		<symbol id="opacity-symbol" viewBox="0 -960 960 960">
        <path d="M480-160q-116.85 0-198.42-79.69Q200-319.38 200-436q0-55.77 22.31-105.35 22.31-49.57 59.38-88.96L480-824.62l198.31 194.31q37.07 39.39 59.38 88.96Q760-491.77 760-436q0 116.62-81.58 196.31Q596.85-160 480-160ZM242.77-400h474q12-72-13.89-123.77Q677-575.54 650-601.54l-170-168-170 168q-27 26-52.62 77.77Q231.77-472 242.77-400Z"></path>
    </symbol>
	
		<symbol id="palette-solid-full-symbol" viewBox="0 0 640 640">
        <path d="M576 320C576 320.9 576 321.8 576 322.7C575.6 359.2 542.4 384 505.9 384L408 384C381.5 384 360 405.5 360 432C360 435.4 360.4 438.7 361 441.9C363.1 452.1 367.5 461.9 371.8 471.8C377.9 485.6 383.9 499.3 383.9 513.8C383.9 545.6 362.3 574.5 330.5 575.8C327 575.9 323.5 576 319.9 576C178.5 576 63.9 461.4 63.9 320C63.9 178.6 178.6 64 320 64C461.4 64 576 178.6 576 320zM192 352C192 334.3 177.7 320 160 320C142.3 320 128 334.3 128 352C128 369.7 142.3 384 160 384C177.7 384 192 369.7 192 352zM192 256C209.7 256 224 241.7 224 224C224 206.3 209.7 192 192 192C174.3 192 160 206.3 160 224C160 241.7 174.3 256 192 256zM352 160C352 142.3 337.7 128 320 128C302.3 128 288 142.3 288 160C288 177.7 302.3 192 320 192C337.7 192 352 177.7 352 160zM448 256C465.7 256 480 241.7 480 224C480 206.3 465.7 192 448 192C430.3 192 416 206.3 416 224C416 241.7 430.3 256 448 256z"></path>
    </symbol>
	
		<symbol id="paste-solid-full-symbol" viewBox="0 0 640 640">
        <path d="M128 64C92.7 64 64 92.7 64 128L64 448C64 483.3 92.7 512 128 512L240 512L240 288C240 226.1 290.1 176 352 176L416 176L416 128C416 92.7 387.3 64 352 64L128 64zM312 176L168 176C154.7 176 144 165.3 144 152C144 138.7 154.7 128 168 128L312 128C325.3 128 336 138.7 336 152C336 165.3 325.3 176 312 176zM352 224C316.7 224 288 252.7 288 288L288 512C288 547.3 316.7 576 352 576L512 576C547.3 576 576 547.3 576 512L576 346.5C576 329.5 569.3 313.2 557.3 301.2L498.8 242.7C486.8 230.7 470.5 224 453.5 224L352 224z"></path>
    </symbol>
	
		<symbol id="plus-solid-symbol" viewBox="0 0 448 512">
        <path d="M256 80c0-17.7-14.3-32-32-32s-32 14.3-32 32l0 144L48 224c-17.7 0-32 14.3-32 32s14.3 32 32 32l144 0 0 144c0 17.7 14.3 32 32 32s32-14.3 32-32l0-144 144 0c17.7 0 32-14.3 32-32s-14.3-32-32-32l-144 0 0-144z"></path>
    </symbol>
	
		<symbol id="rectangle-symbol" viewBox="0 -960 960 960">
        <path stroke="currentColor" d="M120-200v-560h720v560H120Zm40-40h640v-480H160v480Zm0 0v-480 480Z"></path>
    </symbol>
	
		<symbol id="rotate_90_degrees_cw-symbol" viewBox="0 -960 960 960">
        <path d="M448.46-120q-66.6 0-124.76-25.04-58.16-25.04-101.66-68.54-43.5-43.5-68.54-101.64-25.04-58.14-25.04-124.71 0-133.15 93.33-226.61Q315.13-760 448.46-760h52.16l-80.47-80.46 28.31-31.85L580.77-740 448.46-607.69l-28.31-31.85L500.62-720h-52.16q-117 0-198.5 81.5T168.46-440q0 117 81.5 198.5t198.5 81.5q35 0 69-8.5t65-25.5l28.77 28.77q-36.85 21.85-78.26 33.54Q491.56-120 448.46-120Zm240-136.92L505.38-440l183.08-183.08L871.54-440 688.46-256.92Zm0-57.08 126-126-126-126-126 126 126 126Zm0-126Z"></path>
    </symbol>
	
		<symbol id="rotate_auto-symbol" viewBox="0 -960 960 960">
        <path d="M327.38-320h37.85l41.23-104.31h149.08L596.77-320h38.92L493.54-680H468L327.38-320Zm90.93-136.31L478-617.08h4l61.23 160.77H418.31ZM480.13-120q-74.67 0-139.98-28.04-65.3-28.04-114.2-76.49-48.9-48.45-77.43-113.96Q120-403.99 120-478.46h40q0 66 25.38 124.11 25.39 58.12 68.89 101.62 43.5 43.5 101.75 68.61Q414.28-159 480-159q134 0 227-93t93-227q0-134-93-227t-227-93q-97.46 0-174.58 51.19-77.11 51.19-115.27 133.96h116v40H120V-760h40v119.23q43.46-89.15 128.38-144.19Q373.31-840 480-840q74.7 0 140.4 28.34t114.3 76.92q48.6 48.58 76.95 114.26Q840-554.81 840-480.13q0 74.67-28.34 140.41-28.34 65.73-76.92 114.36-48.58 48.63-114.26 76.99Q554.81-120 480.13-120Z"></path>
    </symbol>
	
		<symbol id="rounded_corner-symbol" viewBox="0 -960 960 960">
        <path d="M160-160v-49.23h49.23V-160H160Zm0-147.69v-49.23h49.23v49.23H160Zm0-147.69v-49.24h49.23v49.24H160Zm0-147.7v-49.23h49.23v49.23H160Zm0-147.69V-800h49.23v49.23H160ZM307.69-160v-49.23h49.23V-160h-49.23Zm0-590.77V-800h49.23v49.23h-49.23ZM455.38-160v-49.23h49.24V-160h-49.24Zm147.7 0v-49.23h49.23V-160h-49.23Zm147.69 0v-49.23H800V-160h-49.23Zm0-147.69v-49.23H800v49.23h-49.23ZM800-455.38h-40v-172.31q0-55.13-38.59-93.72Q682.82-760 627.69-760H455.38v-40h172.31q72.23 0 122.27 50.04Q800-699.92 800-627.69v172.31Z"></path>
    </symbol>
	
		<symbol id="settings-symbol" viewBox="0 0 24 24">
        <circle cx="12" cy="12" r="3"></circle><path d="M19.4 15a1.65 1.65 0 0 0 .33 1.82l.06.06a2 2 0 0 1 0 2.83 2 2 0 0 1-2.83 0l-.06-.06a1.65 1.65 0 0 0-1.82-.33 1.65 1.65 0 0 0-1 1.51V21a2 2 0 0 1-2 2 2 2 0 0 1-2-2v-.09A1.65 1.65 0 0 0 9 19.4a1.65 1.65 0 0 0-1.82.33l-.06.06a2 2 0 0 1-2.83 0 2 2 0 0 1 0-2.83l.06-.06a1.65 1.65 0 0 0 .33-1.82 1.65 1.65 0 0 0-1.51-1H3a2 2 0 0 1-2-2 2 2 0 0 1 2-2h.09A1.65 1.65 0 0 0 4.6 9a1.65 1.65 0 0 0-.33-1.82l-.06-.06a2 2 0 0 1 0-2.83 2 2 0 0 1 2.83 0l.06.06a1.65 1.65 0 0 0 1.82.33H9a1.65 1.65 0 0 0 1-1.51V3a2 2 0 0 1 2-2 2 2 0 0 1 2 2v.09a1.65 1.65 0 0 0 1 1.51 1.65 1.65 0 0 0 1.82-.33l.06-.06a2 2 0 0 1 2.83 0 2 2 0 0 1 0 2.83l-.06.06a1.65 1.65 0 0 0-.33 1.82V9a1.65 1.65 0 0 0 1.51 1H21a2 2 0 0 1 2 2 2 2 0 0 1-2 2h-.09a1.65 1.65 0 0 0-1.51 1z"></path>
    </symbol>
	
		<symbol id="sidebar-symbol" viewBox="0 0 24 24">
        <rect x="3" y="3" width="18" height="18" rx="2" ry="2"></rect><line x1="9" y1="3" x2="9" y2="21"></line>
    </symbol>
	
		<symbol id="trash-2-symbol" viewBox="0 0 24 24">
        <polyline points="3 6 5 6 21 6"></polyline><path d="M19 6v14a2 2 0 0 1-2 2H7a2 2 0 0 1-2-2V6m3 0V4a2 2 0 0 1 2-2h4a2 2 0 0 1 2 2v2"></path><line x1="10" y1="11" x2="10" y2="17"></line><line x1="14" y1="11" x2="14" y2="17"></line>
    </symbol>
	
		<symbol id="type-symbol" viewBox="0 0 24 24">
        
    <polyline points="4 7 4 4 20 4 20 7" fill="none" stroke="currentColor" stroke-width="2"></polyline>
    <line x1="9" y1="20" x2="15" y2="20" fill="none" stroke="currentColor" stroke-width="2"></line>
    <line x1="12" y1="4" x2="12" y2="20" fill="none" stroke="currentColor" stroke-width="2"></line>

    </symbol>
	
		<symbol id="unlock-symbol" viewBox="0 0 24 24">
        <rect x="3" y="11" width="18" height="11" rx="2" ry="2"></rect><path d="M7 11V7a5 5 0 0 1 9.9-1"></path>
    </symbol>
	
		<symbol id="x-solid-symbol" viewBox="0 0 384 512">
        <path d="M376.6 84.5c11.3-13.6 9.5-33.8-4.1-45.1s-33.8-9.5-45.1 4.1L192 206 56.6 43.5C45.3 29.9 25.1 28.1 11.5 39.4S-3.9 70.9 7.4 84.5L150.3 256 7.4 427.5c-11.3 13.6-9.5 33.8 4.1 45.1s33.8 9.5 45.1-4.1L192 306 327.4 468.5c11.3 13.6 31.5 15.4 45.1 4.1s15.4-31.5 4.1-45.1L233.7 256 376.6 84.5z"></path>
    </symbol>
	</svg>